<?xml version="1.0" encoding="UTF-8"?>
<svg id="Laag_1" data-name="Laag 1" xmlns="http://www.w3.org/2000/svg" viewBox="0 0 128 128">
  <defs>
    <style>
      .cls-1, .cls-2, .cls-3, .cls-4 {
        stroke: #38a544;
        stroke-linecap: round;
        stroke-linejoin: round;
      }

      .cls-1, .cls-4 {
        fill: #fff;
      }

      .cls-2, .cls-3 {
        fill: none;
      }

      .cls-2, .cls-3, .cls-4 {
        stroke-width: .5px;
      }

      .cls-3 {
        stroke-dasharray: 0 0 1.99 1.99;
      }
    </style>
  </defs>
  <path class="cls-1" d="M32.89,39.19v54.62c0,2.44,2.17,4.31,4.58,3.96l32.03-4.7c.48-.07.97-.05,1.44.05l19.31,4.25c2.5.55,4.86-1.35,4.86-3.91v-54.62c0-1.81-1.22-3.4-2.97-3.86l-19.47-5.21c-.54-.15-1.11-.17-1.66-.09l-34.75,5.55c-1.94.31-3.37,1.98-3.37,3.95Z"/>
  <line class="cls-1" x1="71.85" y1="29.56" x2="71.85" y2="92.96"/>
  <path class="cls-4" d="M40.64,45.06c3.23-1.34,3.2-3.69,2.01-6.44-2.08.86-3.54,1.83-2.41,3.22,0,0,1.63-.84,1.07-1.43s-1.74-1.42-3.08-1.79c-.63,2.98-.91,4.66,2.42,6.44v8.94"/>
  <g>
    <line class="cls-2" x1="44.91" y1="52.22" x2="44.62" y2="53.18"/>
    <path class="cls-3" d="M44.05,55.09l-.98,3.27c-.07.25-.12.5-.15.75h0c-.21,1.86.81,3.63,2.52,4.38l.52.23c1.72.76,3.73.31,4.96-1.11l3.27-3.76c.14-.16.27-.34.39-.52l.72-1.14c1.46-2.3,4.66-2.68,6.61-.77l.07.07c.87.85,1.34,2.03,1.28,3.25l-.24,5.22c-.04.93.22,1.84.74,2.6l1.26,1.84c.8,1.17,2.12,1.87,3.53,1.87h1.65c.68,0,1.34-.16,1.94-.47l5.32-2.72c1.15-.59,1.97-1.66,2.24-2.93l.28-1.34c.08-.4.11-.81.08-1.22l-.55-7.07c-.08-.99.19-1.99.77-2.8l1.16-1.65c.8-1.14,2.11-1.81,3.5-1.81h2.18"/>
    <line class="cls-2" x1="88.13" y1="49.28" x2="89.13" y2="49.28"/>
  </g>
</svg>