<?xml version="1.0" encoding="UTF-8"?>
<svg id="Laag_1" data-name="Laag 1" xmlns="http://www.w3.org/2000/svg" viewBox="0 0 57.48 101.93">
  <defs>
    <style>
      .cls-1 {
        fill: #fff;
        stroke: #38a544;
        stroke-linecap: round;
        stroke-linejoin: round;
      }
    </style>
  </defs>
  <path class="cls-1" d="M11.95,33.06v65.37c0,1.66,1.34,3,3,3h39.03c1.66,0,3-1.34,3-3v-62.37c0-1.66-1.34-3-3-3h-5.6c-1.66,0-3-1.34-3-3v-.02c0-1.66-1.34-3-3-3H14.95c-1.66,0-3,1.34-3,3v3.02Z"/>
  <path class="cls-1" d="M6.53,33.06v65.37c0,1.66,1.34,3,3,3h39.03c1.66,0,3-1.34,3-3v-62.37c0-1.66-1.34-3-3-3h-5.6c-1.66,0-3-1.34-3-3v-.02c0-1.66-1.34-3-3-3H9.53c-1.66,0-3,1.34-3,3v3.02Z"/>
  <path class="cls-1" d="M8.25,18.28c8.9-3.71,8.83-10.19,5.54-17.78-5.73,2.39-9.77,5.05-6.66,8.89,0,0,4.49-2.32,2.95-3.94S5.29,1.54,1.59.5C-.15,8.72-.93,13.37,8.25,18.28v24.67"/>
  <path class="cls-1" d="M1.57,33.06v65.37c0,1.66,1.34,3,3,3h39.03c1.66,0,3-1.34,3-3v-62.37c0-1.66-1.34-3-3-3h-5.6c-1.66,0-3-1.34-3-3v-.02c0-1.66-1.34-3-3-3H4.57c-1.66,0-3,1.34-3,3v3.02Z"/>
</svg>